# File created by Blade
# Date/Time:  Wed Apr 08 17:31:39 2015
# Frame Rate: 120.000 fps
#------------------------------------------------------
:FULLY-SPECIFIED
:DEGREES
883
root -1.863188 31.277351 -0.385916 -658.597475 -83.522258 549.675720
Spine 150.637555 -0.898858 -2.151842
Head 2.305697 5.984194 3.256705
LeftShoulder -2.537727 14.543193 29.794876
LeftArm 23.721992 0.090974 -87.297607
LeftForeArm 17.682183 0.000000 30.625465
LeftHand -11.789523 -0.000000 -5.272600
LeftHandThumb1 -26.253704 0.000000 33.147579
RightShoulder -23.684435 -48.806796 -11.550613
RightArm 59.674645 -10.012534 49.514858
RightForeArm 8.350869 -0.000000 39.942621
RightHand 2.301454 -0.000000 1.977961
RightHandThumb1 -24.326973 -0.000000 -32.862282
LeftUpLeg 84.606879 -17.725574 13.907951
LeftLeg 67.411320 -0.000000 -0.000000
LeftFoot -31.239850 -2.035693 -9.818900
LeftToeBase -6.716401 -0.000000 0.000000
RightUpLeg 82.781585 20.808492 -26.194720
RightLeg 60.797137 -0.000000 -0.000000
RightFoot -33.692224 21.507076 6.351186
RightToeBase 5.325784 -0.000000 -0.000000
884
root -1.881843 31.391237 -0.383130 -654.449654 -83.652253 548.248936
Spine 148.001788 -0.824352 -2.194962
Head 1.913789 6.080252 3.201586
LeftShoulder -2.516145 14.325479 29.746803
LeftArm 23.704766 -0.090548 -87.449935
LeftForeArm 17.779436 -0.000000 30.363424
LeftHand -11.750162 -0.000000 -5.297438
LeftHandThumb1 -26.253704 0.000000 33.147579
RightShoulder -23.494939 -48.563195 -11.627745
RightArm 59.712223 -9.884868 49.774959
RightForeArm 8.538470 -0.000000 39.847706
RightHand 2.389874 -0.000000 1.739983
RightHandThumb1 -24.326973 -0.000000 -32.862282
LeftUpLeg 82.429022 -16.833260 14.722281
LeftLeg 66.345941 -0.000000 -0.000000
LeftFoot -31.140578 -2.045718 -9.851883
LeftToeBase -6.322718 -0.000000 0.000000
RightUpLeg 80.588587 19.796600 -27.329216
RightLeg 59.782539 -0.000000 -0.000000
RightFoot -33.551593 21.626814 6.426481
RightToeBase 5.635603 -0.000000 -0.000000
885
root -1.888654 31.508128 -0.377925 -649.877812 -83.789604 546.330550
Spine 145.410559 -0.694356 -2.250365
Head 1.523690 6.178882 3.143727
LeftShoulder -2.496069 14.125343 29.692297
LeftArm 23.673947 -0.344054 -87.620263
LeftForeArm 17.818297 -0.000000 30.168203
LeftHand -11.632307 -0.000000 -5.233019
LeftHandThumb1 -26.253704 0.000000 33.147579
RightShoulder -23.275860 -48.309822 -11.714246
RightArm 59.706065 -9.745569 50.034158
RightForeArm 8.689475 -0.000000 39.777240
RightHand 2.390422 -0.000000 1.626435
RightHandThumb1 -24.326973 -0.000000 -32.862282
LeftUpLeg 80.353113 -15.864866 15.480236
LeftLeg 65.227271 -0.000000 -0.000000
LeftFoot -31.022488 -2.042596 -9.887245
LeftToeBase -5.892853 -0.000000 0.000000
RightUpLeg 78.435805 18.775790 -28.407349
RightLeg 58.794760 -0.000000 -0.000000
RightFoot -33.389718 21.667974 6.512647
RightToeBase 5.981261 -0.000000 -0.000000
886
root -1.887085 31.618566 -0.370065 -645.751315 -83.910881 544.926523
Spine 142.744469 -0.648437 -2.320779
Head 1.139938 6.296153 3.100776
LeftShoulder -2.470136 13.929276 29.584925
LeftArm 23.659532 -0.576048 -87.714707
LeftForeArm 17.915746 -0.000000 29.993733
LeftHand -11.760721 0.000000 -5.215556
LeftHandThumb1 -26.253704 0.000000 33.147579
RightShoulder -23.060824 -48.042567 -11.789616
RightArm 59.668788 -9.597633 50.332167
RightForeArm 8.832009 -0.000000 39.674778
RightHand 2.464357 -0.000000 1.578859
RightHandThumb1 -24.326973 -0.000000 -32.862282
LeftUpLeg 78.169494 -14.903104 16.168420
LeftLeg 64.186417 -0.000000 -0.000000
LeftFoot -30.905991 -2.065390 -9.942325
LeftToeBase -5.436564 -0.000000 0.000000
RightUpLeg 76.274411 17.606622 -29.430837
RightLeg 57.832389 -0.000000 -0.000000
RightFoot -33.221214 21.681856 6.563582
RightToeBase 6.313461 -0.000000 -0.000000
887
root -1.875561 31.729672 -0.362827 -641.457822 -84.010445 543.290417
Spine 140.118050 -0.607202 -2.366557
Head 0.755272 6.385637 3.059728
LeftShoulder -2.437428 13.762154 29.474637
LeftArm 23.679606 -0.815974 -87.775689
LeftForeArm 17.885913 -0.000000 29.802555
LeftHand -11.668930 -0.000000 -5.279047
LeftHandThumb1 -26.253704 0.000000 33.147579
RightShoulder -22.937201 -47.849115 -11.769439
RightArm 59.690447 -9.410400 50.568003
RightForeArm 8.974958 -0.000000 39.579686
RightHand 2.472502 -0.000000 1.462180
RightHandThumb1 -24.326973 -0.000000 -32.862282
LeftUpLeg 76.067251 -13.915196 16.822835
LeftLeg 63.118784 -0.000000 -0.000000
LeftFoot -30.773340 -2.059125 -9.963833
LeftToeBase -5.011746 -0.000000 0.000000
RightUpLeg 74.190217 16.411660 -30.360982
RightLeg 56.866625 -0.000000 -0.000000
RightFoot -33.024275 21.702295 6.685690
RightToeBase 6.648939 -0.000000 -0.000000
888
root -1.854627 31.839298 -0.354921 -637.097008 -84.103290 541.601125
Spine 137.460901 -0.553059 -2.430809
Head 0.375281 6.436427 3.018575
LeftShoulder -2.413793 13.597289 29.341771
LeftArm 23.679707 -1.047825 -87.809288
LeftForeArm 17.888355 -0.000000 29.662739
LeftHand -11.780437 -0.000000 -5.185489
LeftHandThumb1 -26.253704 0.000000 33.147579
RightShoulder -22.753840 -47.641724 -11.766119
RightArm 59.672732 -9.204479 50.831061
RightForeArm 9.003912 -0.000000 39.478647
RightHand 2.447795 -0.000000 1.427416
RightHandThumb1 -24.326973 -0.000000 -32.862282
LeftUpLeg 73.957404 -12.890429 17.399473
LeftLeg 62.060582 -0.000000 -0.000000
LeftFoot -30.630876 -2.071712 -10.025011
LeftToeBase -4.560603 -0.000000 0.000000
RightUpLeg 72.144601 15.150367 -31.163094
RightLeg 55.890925 -0.000000 -0.000000
RightFoot -32.844626 21.657507 6.787131
RightToeBase 6.915678 -0.000000 -0.000000
889
root -1.826756 31.946692 -0.340664 -632.930080 -84.246988 540.126528
Spine 134.767465 -0.531726 -2.546872
Head 0.011195 6.502288 3.001247
LeftShoulder -2.388914 13.471482 29.187623
LeftArm 23.714862 -1.311014 -87.829017
LeftForeArm 17.921174 -0.000000 29.552346
LeftHand -11.817157 -0.000000 -5.099104
LeftHandThumb1 -26.253704 0.000000 33.147579
RightShoulder -22.600615 -47.442210 -11.697249
RightArm 59.645112 -8.974097 51.060993
RightForeArm 9.002935 -0.000000 39.354385
RightHand 2.499623 -0.000000 1.444237
RightHandThumb1 -24.326973 -0.000000 -32.862282
LeftUpLeg 71.824186 -11.834119 17.868575
LeftLeg 61.011155 -0.000000 -0.000000
LeftFoot -30.519024 -2.023619 -10.058689
LeftToeBase -4.058126 -0.000000 0.000000
RightUpLeg 70.133817 13.836169 -31.939225
RightLeg 54.889969 -0.000000 -0.000000
RightFoot -32.618228 21.687918 6.985820
RightToeBase 7.233935 -0.000000 -0.000000
890
root -1.788855 32.046081 -0.325550 -628.889817 -84.383732 538.853805
Spine 131.985653 -0.566984 -2.652042
Head -0.342156 6.549424 2.975280
LeftShoulder -2.361341 13.357449 29.010675
LeftArm 23.770008 -1.555341 -87.791968
LeftForeArm 17.797396 -0.000000 29.463839
LeftHand -11.864817 -0.000000 -5.079891
LeftHandThumb1 -26.253704 0.000000 33.147579
RightShoulder -22.458922 -47.224866 -11.626564
RightArm 59.593306 -8.770847 51.300704
RightForeArm 8.932725 -0.000000 39.209442
RightHand 2.523501 0.000000 1.389665
RightHandThumb1 -24.326973 -0.000000 -32.862282
LeftUpLeg 69.628508 -10.798275 18.381457
LeftLeg 59.928089 -0.000000 -0.000000
LeftFoot -30.487521 -2.148931 -10.063946
LeftToeBase -3.461358 -0.000000 0.000000
RightUpLeg 68.096278 12.422495 -32.596895
RightLeg 53.915646 -0.000000 -0.000000
RightFoot -32.416211 21.706950 7.195377
RightToeBase 7.632134 -0.000000 -0.000000
891
root -1.741932 32.158259 -0.314112 -624.332996 -84.430131 536.865526
Spine 129.365588 -0.533805 -2.698708
Head -0.689315 6.605124 2.936899
LeftShoulder -2.368269 13.234746 28.840295
LeftArm 23.792962 -1.779575 -87.779918
LeftForeArm 17.781179 -0.000000 29.372374
LeftHand -11.857696 0.000000 -5.030695
LeftHandThumb1 -26.253704 0.000000 33.147579
RightShoulder -22.295276 -47.005797 -11.584815
RightArm 59.523064 -8.577861 51.485575
RightForeArm 8.867610 -0.000000 39.079086
RightHand 2.491767 -0.000000 1.426072
RightHandThumb1 -24.326973 -0.000000 -32.862282
LeftUpLeg 67.657280 -9.711814 18.777491
LeftLeg 58.839150 -0.000000 -0.000000
LeftFoot -30.301244 -2.129205 -10.158863
LeftToeBase -2.951453 -0.000000 0.000000
RightUpLeg 66.227278 11.119556 -33.024509
RightLeg 52.899271 -0.000000 -0.000000
RightFoot -32.145281 21.669285 7.436900
RightToeBase 7.927040 -0.000000 -0.000000
892
root -1.686480 32.266990 -0.301259 -619.666858 -84.492650 534.802938
Spine 126.690123 -0.497037 -2.762983
Head -1.027268 6.659554 2.916649
LeftShoulder -2.353215 13.123089 28.679926
LeftArm 23.803441 -1.999128 -87.740066
LeftForeArm 17.770786 -0.000000 29.352713
LeftHand -11.976095 -0.000000 -4.961346
LeftHandThumb1 -26.253704 0.000000 33.147579
RightShoulder -22.152731 -46.766006 -11.502765
RightArm 59.444166 -8.395144 51.609362
RightForeArm 8.775835 -0.000000 38.931011
RightHand 2.470932 -0.000000 1.443676
RightHandThumb1 -24.326973 -0.000000 -32.862282
LeftUpLeg 65.631181 -8.585270 19.089560
LeftLeg 57.787299 -0.000000 -0.000000
LeftFoot -30.100013 -2.038977 -10.249879
LeftToeBase -2.471841 -0.000000 0.000000
RightUpLeg 64.341206 9.788972 -33.383607
RightLeg 51.880969 -0.000000 -0.000000
RightFoot -31.786261 21.739833 7.828830
RightToeBase 8.030778 -0.000000 -0.000000
